<?xml version="1.0" encoding="UTF-8"?><svg xmlns="http://www.w3.org/2000/svg" viewBox="0 0 1000 1000" x="0px" y="0px" width="1000px" height="1000px" version="1.1" xmlns:xlink="http://www.w3.org/1999/xlink"><g style="isolation:isolate"><g id="Layer_1" data-name="Layer 1"><g opacity="0.15"><path d="M831,751.724H169a3,3,0,0,1,0-6H831a3,3,0,0,1,0,6Z" fill="#474747"/><path d="M732.524,751.724a3,3,0,0,1-3-3v-325.3a3,3,0,0,1,6,0v325.3A3,3,0,0,1,732.524,751.724Z" fill="#474747"/><path d="M732.524,571.035c-27.525,0-47.105-11.427-58.2-33.962C645.32,478.129,684.9,358.187,704.079,333.282c8.172-10.615,18.806-16.953,28.445-16.953s20.273,6.338,28.445,16.953h0c19.175,24.906,58.758,144.849,29.749,203.791C779.627,559.608,760.048,571.035,732.524,571.035Zm0-248.706c-7.79,0-16.646,5.463-23.691,14.613-8.916,11.58-23.221,46.966-31.725,86.137-10.3,47.452-9.379,87,2.6,111.345,10,20.312,27.765,30.611,52.812,30.611s42.814-10.3,52.811-30.611c11.984-24.349,12.908-63.893,2.606-111.345-8.506-39.17-22.811-74.556-31.726-86.137h0C749.17,327.792,740.314,322.329,732.524,322.329Z" fill="#474747"/><path d="M732.524,476.456a3,3,0,0,1-2.121-5.121l25.2-25.2a3,3,0,0,1,4.242,4.242l-25.2,25.2A2.991,2.991,0,0,1,732.524,476.456Z" fill="#474747"/><path d="M732.524,535.166a2.988,2.988,0,0,1-2.121-.879l-34.279-34.279a3,3,0,0,1,4.242-4.242l34.279,34.279a3,3,0,0,1-2.121,5.121Z" fill="#474747"/><circle cx="815.662" cy="557.071" r="49.387" fill="#fff"/><path d="M815.662,609.458a52.388,52.388,0,1,1,52.387-52.387A52.447,52.447,0,0,1,815.662,609.458Zm0-98.775a46.388,46.388,0,1,0,46.387,46.388A46.44,46.44,0,0,0,815.662,510.683Z" fill="#474747"/><path d="M732.524,643.274a3,3,0,0,1-2.121-5.121l91.365-91.364a3,3,0,0,1,4.242,4.242L734.645,642.4A2.991,2.991,0,0,1,732.524,643.274Z" fill="#474747"/><path d="M825.822,589.075h-39.1a3,3,0,1,1,0-6h39.1a3,3,0,0,1,0,6Z" fill="#474747"/><path d="M806.273,569.525a3,3,0,0,1-3-3V548.91a3,3,0,0,1,6,0v17.615A3,3,0,0,1,806.273,569.525Z" fill="#474747"/><path d="M732.524,702.751a2.988,2.988,0,0,1-2.121-.879l-82.06-82.06a3,3,0,1,1,4.242-4.242l82.06,82.06a3,3,0,0,1-2.121,5.121Z" fill="#474747"/><path d="M675.6,678.813a49.777,49.777,0,0,1-14.236-2.18c-13.529-4.041-26.285-13.3-35.919-26.07-20.092-26.635-20.212-60.547-.267-75.592s52.52-5.616,72.611,21.019h0c20.094,26.636,20.214,60.547.269,75.593A36.727,36.727,0,0,1,675.6,678.813ZM647.712,573.746a30.913,30.913,0,0,0-18.917,6.015c-17.3,13.053-16.656,43.194,1.444,67.189,8.87,11.757,20.534,20.257,32.847,23.934,11.985,3.579,23.122,2.126,31.362-4.09,17.3-13.055,16.657-43.195-1.444-67.191h0C680.561,583.109,663.058,573.746,647.712,573.746Z" fill="#474747"/><path d="M691.794,662.021a3,3,0,0,1-3-3V632.537a3,3,0,0,1,6,0v26.484A3,3,0,0,1,691.794,662.021Z" fill="#474747"/><path d="M670.774,641h-20.31a3,3,0,0,1,0-6h20.31a3,3,0,1,1,0,6Z" fill="#474747"/><path d="M260.675,748.1h-22.3a3,3,0,0,1-3-3V689.925a3,3,0,0,1,3-3h22.3a3,3,0,0,1,3,3V745.1A3,3,0,0,1,260.675,748.1Zm-19.3-6h16.3V692.925h-16.3Z" fill="#474747"/><path d="M491.276,748.1h-22.3a3,3,0,0,1-3-3V689.925a3,3,0,0,1,3-3h22.3a3,3,0,0,1,3,3V745.1A3,3,0,0,1,491.276,748.1Zm-19.3-6h16.3V692.925h-16.3Z" fill="#474747"/><path d="M268.36,667.754H252.747a3,3,0,0,1-3-3v-118.3a3,3,0,0,1,3-3H268.36a3,3,0,0,1,3,3v118.3A3,3,0,0,1,268.36,667.754Zm-12.613-6h9.613v-112.3h-9.613Z" fill="#474747"/><path d="M476.9,667.754H461.286a3,3,0,0,1-3-3v-118.3a3,3,0,0,1,3-3H476.9a3,3,0,0,1,3,3v118.3A3,3,0,0,1,476.9,667.754Zm-12.614-6H473.9v-112.3h-9.614Z" fill="#474747"/><rect x="201.804" y="564.531" width="312.251" height="33.455" fill="#fff"/><path d="M514.056,600.987H201.8a3,3,0,0,1-3-3V564.531a3,3,0,0,1,3-3H514.056a3,3,0,0,1,3,3v33.456A3,3,0,0,1,514.056,600.987Zm-309.252-6H511.056V567.531H204.8Z" fill="#474747"/><rect x="201.804" y="597.987" width="312.251" height="33.455" fill="#fff"/><path d="M514.056,634.442H201.8a3,3,0,0,1-3-3V597.987a3,3,0,0,1,3-3H514.056a3,3,0,0,1,3,3v33.455A3,3,0,0,1,514.056,634.442Zm-309.252-6H511.056V600.987H204.8Z" fill="#474747"/><path d="M469.093,589.949a7.461,7.461,0,1,1,7.461-7.461A7.469,7.469,0,0,1,469.093,589.949Zm0-8.922a1.461,1.461,0,1,0,1.461,1.461A1.463,1.463,0,0,0,469.093,581.027Z" fill="#474747"/><path d="M469.093,622.176a7.461,7.461,0,1,1,7.461-7.461A7.469,7.469,0,0,1,469.093,622.176Zm0-8.922a1.461,1.461,0,1,0,1.461,1.461A1.462,1.462,0,0,0,469.093,613.254Z" fill="#474747"/><path d="M260.554,589.949a7.461,7.461,0,1,1,7.461-7.461A7.469,7.469,0,0,1,260.554,589.949Zm0-8.922a1.461,1.461,0,1,0,1.461,1.461A1.463,1.463,0,0,0,260.554,581.027Z" fill="#474747"/><path d="M260.554,622.176a7.461,7.461,0,1,1,7.461-7.461A7.469,7.469,0,0,1,260.554,622.176Zm0-8.922a1.461,1.461,0,1,0,1.461,1.461A1.462,1.462,0,0,0,260.554,613.254Z" fill="#474747"/><path d="M539.277,692.925H185.763a3,3,0,0,1-3-3V664.754a3,3,0,0,1,3-3H539.277a3,3,0,0,1,3,3v25.171A3,3,0,0,1,539.277,692.925Zm-350.514-6H536.277V667.754H188.763Z" fill="#474747"/></g><path d="M422,712.62l3.958,28.623c.592,4.281,4.6,7.48,9.368,7.48H563.5c4.772,0,8.776-3.2,9.368-7.48l3.958-28.623Z" fill="#d6d6d4"/><path d="M560.739,748.723l9.33-2.411,6.757-33.692H422l1.521,11h128C569.791,723.621,560.739,748.723,560.739,748.723Z" fill="#bababa"/><path d="M592.342,702.936,627.3,423.426H371.52l34.961,279.51a11.151,11.151,0,0,0,11.163,9.684H581.179A11.151,11.151,0,0,0,592.342,702.936Z" fill="#5eb173"/><path d="M592.342,702.936,627.3,423.426H371.52l34.961,279.51a11.151,11.151,0,0,0,11.163,9.684H581.179A11.151,11.151,0,0,0,592.342,702.936Z" fill="#5eb173"/><path d="M492.3,652.194a8.228,8.228,0,0,1-5.065-1.849,11.312,11.312,0,0,1-3.64-8.413,15.1,15.1,0,0,1,4.241-11.413c.761-.729,3.074-2.951,6.087-2.951a6.076,6.076,0,0,1,.935.073,7.939,7.939,0,0,1,5.2,3.75,15.211,15.211,0,0,1,1.968,11.6c-1.112,4.357-4.82,9.063-9.5,9.2Zm.99-13.755c-.869,2.077-.67,3.428-.421,3.656a.623.623,0,0,0,.089.061,2.716,2.716,0,0,0,.494-.91A4.26,4.26,0,0,0,493.285,638.439Z" fill="#60a06c" opacity="0.34" style="mix-blend-mode:multiply"/><path d="M503.92,664.587a6.471,6.471,0,0,1-3.626-1.072c-2.239-1.5-2.073-3.476-1.455-10.806.391-4.641.982-11.654,1.479-22.706q.038-.846.1-1.687l-.191,0q-.354,0-.682.031c-.794.074-1.59.106-2.386.136-.864.034-1.68.066-2.478.156-.334.038-.63.075-.891.108a12.319,12.319,0,0,1-1.506.136,2.877,2.877,0,0,1-2.169-.854c-2.059-2.146.2-6.628,1.934-8.328a7.729,7.729,0,0,1,5.629-2.007,19.893,19.893,0,0,1,4.592.629A13.516,13.516,0,0,1,507,611.432a10.451,10.451,0,0,1,5.918-2.083,8.212,8.212,0,0,1,1.2.088,7.058,7.058,0,0,1,4.074,1.939,6.95,6.95,0,0,1,1.93,4.887,8.01,8.01,0,0,1,2.623-.455,7.378,7.378,0,0,1,1.073.08,6.387,6.387,0,0,1,3.68,1.754,6.909,6.909,0,0,1,1.572,6.225l-.393,1.708a2.706,2.706,0,0,0,.834-.541,4.246,4.246,0,0,0,1.072-2.778l.35-4.109,5.142,4.809.162.323c.9,1.8.294,4.13-1.752,6.734-1.5,1.917-4.387,2.849-8.817,2.849a41.616,41.616,0,0,1-4.365-.252,81.841,81.841,0,0,0-.478,10.325c.053,2.036.114,3.852.168,5.474.3,8.869.42,12.54-2.441,14.638a6.122,6.122,0,0,1-3.6,1.146h0a5.877,5.877,0,0,1-3.291-.974A3.477,3.477,0,0,1,510,660.455a5.812,5.812,0,0,1-2.1,2.867A6.752,6.752,0,0,1,503.92,664.587Zm6.8-34.044c-.444,5-.329,9.766-.328,9.821.06,2.347.131,4.443.193,6.315.025.769.051,1.5.072,2.208.285-3.7.609-8.536.9-14.931.049-1.084.126-2.132.23-3.134C511.431,630.729,511.076,630.637,510.724,630.543Zm12.832-4.982a14.8,14.8,0,0,0,3.019.366,7.415,7.415,0,0,0,.9-.051l-1.3-.693a2.447,2.447,0,0,0-1.131-.313,1.706,1.706,0,0,0-.262.02A3.163,3.163,0,0,0,523.556,625.561Zm-9.728-3.222a12.831,12.831,0,0,1,1.941-3.14c-.065,0-.128-.008-.192-.008a2.319,2.319,0,0,0-.383.032,4.143,4.143,0,0,0-1.962,1.251,4.747,4.747,0,0,0-.78,1.329Z" fill="#60a06c" opacity="0.34" style="mix-blend-mode:multiply"/><path d="M526.506,654.655a7.751,7.751,0,0,1-5.563-2.018c-1.924-1.925-2.551-5.362-1.721-9.428.9-4.414,3.826-10.324,9.1-12.45a12.436,12.436,0,0,1,4.356-.866,7.207,7.207,0,0,1,4.812,1.64,8.145,8.145,0,0,1,2.239,8.227,8.72,8.72,0,0,1-4.827,5.421,2.576,2.576,0,0,1,.547,1.372,7.629,7.629,0,0,1-2.292,5.618A9.638,9.638,0,0,1,526.506,654.655Zm5.094-16.826a4.163,4.163,0,0,0-.985.569A6.954,6.954,0,0,0,531.6,637.829Z" fill="#60a06c" opacity="0.34" style="mix-blend-mode:multiply"/><path d="M542.6,655.067a8.386,8.386,0,0,1-5.947-2.257c-1.9-1.95-2.541-5.238-1.76-9.021,1-4.839,3.984-8.935,7.608-10.434a11.355,11.355,0,0,1,4.172-.818,6.864,6.864,0,0,1,5.35,2.144c2.232,2.538,1.422,6.032,1.122,7.042a8.772,8.772,0,0,1-3.694,4.819,2.531,2.531,0,0,1,.642,1.528,6.853,6.853,0,0,1-2.174,5.144A7.838,7.838,0,0,1,542.6,655.067Z" fill="#60a06c" opacity="0.34" style="mix-blend-mode:multiply"/><path d="M469.411,663.021a15.86,15.86,0,0,1-4.614-.675c-4.954-1.508-8.951-5.592-11.257-11.5-2.493-6.388-1.745-14.489,1.885-21.77a12.376,12.376,0,0,0-3.979,1.813,7.2,7.2,0,0,1-3.618,1.448,3.1,3.1,0,0,1-1.872-.618c-1.145-.855-1.715-2.464-1.6-4.53.129-2.354,1.225-5.662,3.893-7.234a6.762,6.762,0,0,1,3.484-.889c2.613,0,5.595,1.177,8.706,2.623a23.416,23.416,0,0,1,10.117-6.858,19.392,19.392,0,0,1,5.732-.975,7.636,7.636,0,0,1,6.012,2.3c2.98,3.374,1.628,9.486-1.5,13.075-1.506,1.728-4.335,3.848-9.256,4.136-.267.016-.526.024-.779.024a18.7,18.7,0,0,1-5.337-.955c-.453-.128-.884-.261-1.3-.4-1.937,6.705-1.049,13.858,2.245,16.6a7.493,7.493,0,0,0,4.5,1.737,4.867,4.867,0,0,0,1.136-.131c.113-.026,2.76-.682,3.331-2.8a3.485,3.485,0,0,0-.539-2.98,3.743,3.743,0,0,0-1.556-.962c-.594-.242-2.176-.883-2.032-2.575.161-1.915,2.551-2.787,4.7-2.787a7.073,7.073,0,0,1,1.758.215c4.631,1.194,7.977,7.725,6.886,13.439a13.423,13.423,0,0,1-5.739,8.252,16.245,16.245,0,0,1-9.413,2.979Zm-1.961-37.8a6.018,6.018,0,0,0,2.844.933,4.633,4.633,0,0,0,.551-.035c1.724-.21,3.733-1.24,4.237-2.8a2.47,2.47,0,0,0,.037-1.733,1.369,1.369,0,0,0-.793-.152,9.151,9.151,0,0,0-3.705,1.051l-.144.078A10.174,10.174,0,0,0,467.45,625.223Z" fill="#60a06c" opacity="0.34" style="mix-blend-mode:multiply"/><path d="M371.52,423.426l2.749,21.983H587.031A13.516,13.516,0,0,1,600.443,460.6l-22.179,229.98a19.761,19.761,0,0,1-16.188,17.555l-25.047,4.482,35.62.024.007-.024h8.523a11.151,11.151,0,0,0,11.163-9.684L627.3,423.426Z" fill="#60a06c"/><path d="M563.5,751.724H435.323c-6.241,0-11.545-4.33-12.339-10.07l-3.958-28.623A3,3,0,0,1,422,709.62H576.826a3,3,0,0,1,2.972,3.411l-3.958,28.623C575.045,747.394,569.74,751.724,563.5,751.724Zm-138.059-36.1,3.486,25.212c.386,2.789,3.136,4.892,6.4,4.892H563.5c3.261,0,6.011-2.1,6.4-4.892l3.486-25.212Z" fill="#474747"/><path d="M581.179,715.62H417.644a14.188,14.188,0,0,1-14.139-12.312L368.543,423.8a3,3,0,0,1,2.977-3.372H627.3a3,3,0,0,1,2.976,3.372l-34.961,279.51A14.189,14.189,0,0,1,581.179,715.62ZM374.918,426.426l34.54,276.137a8.181,8.181,0,0,0,8.186,7.057H581.179a8.18,8.18,0,0,0,8.186-7.057l2.977.372-2.977-.372,34.54-276.137Z" fill="#474747"/><path d="M632.808,423.426H366.015c-8.69.079-7.494-4.586-4.483-13.542a25.178,25.178,0,0,0,0-16.241c-3.01-8.955-4.207-13.62,4.483-13.541H632.808c8.69-.079,7.493,4.585,4.483,13.541a25.178,25.178,0,0,0,0,16.241C640.3,418.84,641.5,423.505,632.808,423.426Z" fill="#646464"/><path d="M637.291,393.643c1.944-5.783,3.127-9.773,1.385-11.856-.375,1.317-.851,2.769-1.385,4.36a25.159,25.159,0,0,0-1.053,11.868A25.032,25.032,0,0,1,637.291,393.643Z" fill="#7c7c7c"/><path d="M362.585,398.015a25.159,25.159,0,0,0-1.053-11.868c-.534-1.591-1.01-3.043-1.385-4.36-1.742,2.083-.559,6.073,1.385,11.856A25.122,25.122,0,0,1,362.585,398.015Z" fill="#7c7c7c"/><path d="M638.676,414.244c-.956,1.143-2.789,1.713-5.868,1.685H366.015c-3.079.028-4.912-.543-5.868-1.685-1.737,6.1-1.279,9.246,5.868,9.182H632.808C639.955,423.491,640.413,420.344,638.676,414.244Z" fill="#7c7c7c"/><g style="mix-blend-mode:overlay"><path d="M637.291,409.884c-.164-.479-.3-.965-.429-1.451a25.154,25.154,0,0,0,.305,14.371C640.889,421.265,639.645,416.886,637.291,409.884Z" fill="#646464"/><path d="M362.862,403.546c1.039-.429,4.911-10.105,10.9-10.105H627.3c7.24,0,8.521,14.563,9.559,14.992.045-.138.381-14.651.429-14.79,3.013-8.963,4.209-13.628-4.5-13.541l-266.5,0c-8.985-.179-7.8,4.49-4.753,13.537C361.58,393.782,362.818,403.408,362.862,403.546Z" fill="#646464"/><path d="M361.656,422.8a25.154,25.154,0,0,0,.305-14.371c-.134.486-.265.972-.428,1.451C359.178,416.886,357.934,421.265,361.656,422.8Z" fill="#646464"/></g><path d="M365.745,426.427c-2.606,0-6.185-.367-8.165-3.093-2.551-3.518-.855-8.564,1.109-14.406a22.3,22.3,0,0,0,0-14.317c-1.968-5.854-3.664-10.9-1.113-14.418,2.049-2.821,5.837-3.124,8.462-3.092H632.808c2.644-.028,6.386.27,8.434,3.092,2.552,3.518.856,8.564-1.108,14.406a22.3,22.3,0,0,0,0,14.317c1.969,5.854,3.665,10.9,1.113,14.417-2.044,2.817-5.812,3.14-8.448,3.093H365.745Zm.085-43.327c-2.415,0-3.266.443-3.393.618-.736,1.013,1.071,6.387,1.939,8.969a28.311,28.311,0,0,1,0,18.164c-.864,2.571-2.671,7.945-1.935,8.958.13.179,1,.653,3.55.617h267.03c2.391,0,3.243-.443,3.37-.618.735-1.013-1.072-6.386-1.941-8.969a28.311,28.311,0,0,1,0-18.164c.865-2.571,2.671-7.945,1.936-8.958-.13-.18-1.023-.652-3.551-.617H365.83Z" fill="#474747"/><path d="M625.065,380.1H373.758l2.46-8.768c3.925-13.988,17.293-23.725,32.572-23.725H590.033c15.279,0,28.647,9.737,32.572,23.725Z" fill="#d6d6d4"/><path d="M625.065,380.1H373.758l2.46-8.768c3.925-13.988,17.293-23.725,32.572-23.725H590.033c15.279,0,28.647,9.737,32.572,23.725Z" fill="#d6d6d4"/><path d="M426.494,357.963l171.483-.052c12.4,0,20.039,8.931,23.451,10.024-6.051-9.087-19.6-20.326-31.395-20.326H408.79c-15.279,0-28.647,9.737-32.572,23.725l-2.46,8.768h21.8C400.812,368.54,412.893,357.963,426.494,357.963Z" fill="#fff"/><path d="M625.066,383.1H373.758a3,3,0,0,1-2.889-3.81l2.46-8.768c4.282-15.257,18.864-25.914,35.461-25.914H590.033c16.6,0,31.18,10.657,35.461,25.914l2.46,8.768a3,3,0,0,1-2.888,3.81Zm-247.35-6H621.108l-1.391-4.957c-3.558-12.679-15.764-21.535-29.684-21.535H408.79c-13.92,0-26.126,8.856-29.683,21.535Z" fill="#474747"/><path d="M520.419,327.752h41.7A13.452,13.452,0,0,1,575.571,341.2v6.405a0,0,0,0,1,0,0h-68.6a0,0,0,0,1,0,0V341.2A13.452,13.452,0,0,1,520.419,327.752Z" fill="#d6d6d4"/><path d="M520.419,327.752h41.7A13.452,13.452,0,0,1,575.571,341.2v6.405a0,0,0,0,1,0,0h-68.6a0,0,0,0,1,0,0V341.2A13.452,13.452,0,0,1,520.419,327.752Z" fill="#d6d6d4"/><path d="M507.083,347.394A12.817,12.817,0,0,1,519.9,334.577h42.97a12.81,12.81,0,0,1,12.7,11.183v-5.191a12.817,12.817,0,0,0-12.817-12.817H519.785a12.817,12.817,0,0,0-12.818,12.817v7.04h.116Z" fill="#fff"/><path d="M491.275,582.407c-10.623,0-29.761-7.5-35.94-27.617a55.6,55.6,0,0,1,6.716-50.219c7.38-10.578,17.475-16.645,27.695-16.645a26.377,26.377,0,0,1,9.24,1.691l.147.056.138.077c2.126,1.2,3.34,2.609,3.711,4.305.632,2.889-1.328,5.605-3.81,9.044-4.979,6.9-11.8,16.349-5.1,33.79,7.768,20.213,7.811,39.388,2.992,43.955C495.97,581.882,494.022,582.407,491.275,582.407Z" fill="#60a06c"/><path d="M575.571,350.609h-68.6a3,3,0,0,1-3-3v-6.4a16.471,16.471,0,0,1,16.452-16.452h41.7A16.471,16.471,0,0,1,578.571,341.2v6.4A3,3,0,0,1,575.571,350.609Zm-65.6-6h62.6v-3.4a10.463,10.463,0,0,0-10.452-10.452h-41.7A10.463,10.463,0,0,0,509.967,341.2Z" fill="#474747"/><path d="M518.773,582.144a13.629,13.629,0,0,1-9.978-4.11,11.021,11.021,0,0,1-3.016-8.322c.528-7.98-2.195-15.613-4.828-22.993-2.4-6.73-4.668-13.086-4.683-19.705-.058-24.365,16.286-32.086,18.3-32.946a8.374,8.374,0,0,1,4.376-1.168c6.5,0,14.47,6.4,20.3,16.294a57.662,57.662,0,0,1,.339,57.482c-5.448,9.831-13.034,15.468-20.812,15.468Z" fill="#60a06c"/><path d="M499.286,488.491c11.792,6.666-18.084,14.875-6.078,46.116,8.2,21.334,7,38.454,3.482,41.784s-30.943-.647-38.459-25.239C445.827,517.437,472.8,478.607,499.286,488.491Z" fill="#f6f9e4"/><path d="M516.484,492.856s-17.274,6.81-17.216,31.152c.032,13.609,10.536,27.259,9.508,42.836-.714,10.819,17.813,17.961,30.061-4.138C560.419,523.765,528.431,485.311,516.484,492.856Z" fill="#f6f9e4"/><path d="M488.216,629.963c-4.61,4.424-4.828,13.47-.719,16.834a6.216,6.216,0,0,0,3.956,1.395c3.8-.112,6.748-4.253,7.626-7.7,1.375-5.392-1.53-12.242-5.539-12.877C491.068,627.225,488.9,629.309,488.216,629.963Zm6.115,9.956c-.105.3-.742,2.079-2.086,2.266a2.313,2.313,0,0,1-1.727-.611c-1.212-1.1-1.135-3.631.108-6.331.771-1.226,1.356-1.468,1.763-1.439C493.776,633.9,495.255,637.328,494.331,639.919Z" fill="#f6f9e4"/><path d="M500.41,659.854c-2.134-1.433-.316-4.573.9-31.761.337-7.5,1.911-14.311,5.823-17.016a8.085,8.085,0,0,1,5.682-1.661,5.06,5.06,0,0,1,2.947,1.368c1.876,1.892,1.268,4.762,1.2,5.042a4.926,4.926,0,0,0-3.105-.576,6.01,6.01,0,0,0-3.106,1.87c-3.8,4.137-3.364,21.295-3.364,21.295.367,14.262,1.1,19.257-1.682,21.3A4.789,4.789,0,0,1,500.41,659.854Z" fill="#f6f9e4"/><path d="M511.77,659.559c-1.847-1.241-.273-3.961.785-27.513.292-6.5,1.655-12.4,5.043-14.74a7,7,0,0,1,4.923-1.439,4.378,4.378,0,0,1,2.553,1.185,4.982,4.982,0,0,1,1.043,4.367,4.279,4.279,0,0,0-2.69-.5,5.2,5.2,0,0,0-2.69,1.62c-3.3,3.583-2.914,18.446-2.914,18.446.317,12.355.949,16.682-1.457,18.447A4.15,4.15,0,0,1,511.77,659.559Z" fill="#f6f9e4"/><path d="M528.647,646.442a3.781,3.781,0,0,1-2.973-.384c-2.1-1.52-1.435-6.847,1.247-9.88.374-.423,2.749-3.02,4.8-2.3a2.068,2.068,0,0,1,1.439,1.535c.123,1.653-3.365,3.606-6.523,3.836a9.4,9.4,0,0,1-3.933-.575c-.925,1.292-.779,2.08-.671,2.4.645,1.915,4.93,1.754,5.512,1.727.373-.018,7.872-.479,9.26-5.564a6.192,6.192,0,0,0-1.6-6.175c-2.573-2.186-6.578-.664-7.125-.444-7.053,2.841-10.346,14.975-6.715,18.609,2.114,2.116,7.048,1.831,9.4-.479,1.6-1.573,2-4.073,1.543-4.351C531.87,644.129,530.857,645.87,528.647,646.442Z" fill="#f6f9e4"/><path d="M543.7,647.687a3.368,3.368,0,0,1-2.646-.341c-1.876-1.362-1.133-6.051,1.11-8.789.345-.422,2.007-2.452,3.368-2a1.849,1.849,0,0,1,1.152,1.726c-.058,1.593-2.76,2.785-4.776,3a7.333,7.333,0,0,1-3.5-.512c-.823,1.149-.693,1.85-.6,2.133.5,1.489,3.439,1.651,4.9,1.536,2.62-.2,6.466-1.758,7.518-5.292.132-.447.926-3.294-.707-5.15-1.753-1.994-5.239-1.631-7.255-.8-5.85,2.419-8.643,12.654-5.18,16.211,1.984,2.037,6.369,2.245,8.486.32,1.46-1.327,1.784-3.617,1.372-3.87C546.564,645.629,545.662,647.178,543.7,647.687Z" fill="#f6f9e4"/><path d="M531.572,620.425a6.25,6.25,0,0,1-1.678,4.05c-6.882,6.618-30.724-11.928-37.446-5.348-1.455,1.424-2.734,4.636-1.89,5.516.387.4,1.055.215,2.9.007,1.626-.184,3.271-.143,4.9-.3,3.984-.375,10.063,2.017,16.387,3.356,1.591.337,14.158,2.906,17.166-.931.38-.484,2.343-2.988,1.535-4.605h0Z" fill="#f6f9e4"/><path d="M461.6,622.941c4.264,2.069,5.692,3.506,8.489,3.165,2.219-.27,5.079-1.632,5.9-4.173.324-1,.514-2.766-.432-3.74-1.442-1.486-4.9-.5-6.857.519l-.193.1c-8.657,4.721-11.41,23.533-4.412,29.352a8.854,8.854,0,0,0,7.385,2.015c.405-.1,3.935-1.032,4.8-4.221a5.46,5.46,0,0,0-.936-4.784c-1.284-1.537-3.174-1.557-3.129-2.086.046-.548,2.13-1.278,3.969-.8,3.553.916,6.329,6.367,5.419,11.127a11.519,11.519,0,0,1-4.94,7,14.281,14.281,0,0,1-12.278,2.014c-6.754-2.056-9.409-8.86-9.976-10.312-4.905-12.567,4.328-29.761,15.756-33.381.842-.266,7.023-2.224,9.641.739,2.228,2.522.974,7.586-1.512,10.436-2.751,3.154-6.833,3.393-7.866,3.453a15.31,15.31,0,0,1-5.467-.863c-5.1-1.439-5.434-3.034-8.25-3.453-5.411-.806-8.771,4.4-10.551,3.069-1.576-1.178-.856-6.692,2.11-8.441S456.022,620.236,461.6,622.941Z" fill="#f6f9e4"/><path d="M555.708,316.634a3,3,0,0,1-2.43-4.754c5.506-7.643,8.011-15.046,7.443-22-.525-6.437-3.431-10.546-6.795-15.3-3.526-4.988-7.523-10.642-8.689-19.551-1.729-13.2,3.945-24.167,5.81-27.768,3.971-7.671,8.722-11.974,13.317-16.134a62.69,62.69,0,0,0,9.855-10.487,3,3,0,1,1,4.885,3.484,68.474,68.474,0,0,1-10.713,11.45c-4.393,3.979-8.543,7.736-12.016,14.445-1.65,3.189-6.674,12.892-5.189,24.231.973,7.437,4.211,12.017,7.639,16.866,3.548,5.019,7.217,10.208,7.876,18.28.688,8.418-2.191,17.165-8.556,26A3,3,0,0,1,555.708,316.634Z" fill="#474747"/><path d="M575.574,266.19A3,3,0,0,1,573,264.737c-4.306-7.154-6.252-14.358-5.783-21.414.769-11.572,7.686-18.745,15.008-26.34,4.761-4.937,9.682-10.043,13.35-16.783,6.842-12.576,7.925-28.849,3.219-48.363a3,3,0,0,1,5.832-1.406c5.067,21,3.794,38.713-3.781,52.636-4.055,7.453-9.5,13.1-14.3,18.08-6.823,7.077-12.717,13.19-13.341,22.575-.385,5.807,1.276,11.837,4.938,17.921a3,3,0,0,1-2.568,4.547Z" fill="#474747"/><path d="M532.378,240.8a3,3,0,0,1-3-3c0-13.62,12.2-28.014,12.723-28.619a3,3,0,0,1,4.556,3.9h0c-.113.132-11.279,13.327-11.279,24.716A3,3,0,0,1,532.378,240.8Z" fill="#474747"/></g></g></svg>